<svg viewBox="0 0 1018 400" xmlns="http://www.w3.org/2000/svg"><g><g><g><g><g><line x1="30.78125" y1="372.3366708640036" x2="25.78125" y2="372.3366708640036" style="visibility: inherit;" fill="rgb(0, 0, 0)" stroke="rgb(204, 204, 204)" stroke-width="1px"></line><line x1="30.78125" y1="300.12384277159447" x2="25.78125" y2="300.12384277159447" style="visibility: inherit;" fill="rgb(0, 0, 0)" stroke="rgb(204, 204, 204)" stroke-width="1px"></line><line x1="30.78125" y1="241.12166609760575" x2="25.78125" y2="241.12166609760575" style="visibility: inherit;" fill="rgb(0, 0, 0)" stroke="rgb(204, 204, 204)" stroke-width="1px"></line><line x1="30.78125" y1="191.23603652357764" x2="25.78125" y2="191.23603652357764" style="visibility: inherit;" fill="rgb(0, 0, 0)" stroke="rgb(204, 204, 204)" stroke-width="1px"></line><line x1="30.78125" y1="148.02313862111154" x2="25.78125" y2="148.02313862111154" style="visibility: inherit;" fill="rgb(0, 0, 0)" stroke="rgb(204, 204, 204)" stroke-width="1px"></line><line x1="30.78125" y1="109.90666133120783" x2="25.78125" y2="109.90666133120783" style="visibility: inherit;" fill="rgb(0, 0, 0)" stroke="rgb(204, 204, 204)" stroke-width="1px"></line><line x1="30.78125" y1="75.81031052870227" x2="25.78125" y2="75.81031052870227" style="visibility: inherit;" fill="rgb(0, 0, 0)" stroke="rgb(204, 204, 204)" stroke-width="1px"></line></g><g transform="translate(20.78125, 0)"><text x="0" y="372.3366708640036" dx="0em" dy="0.3em" style="text-anchor: end; visibility: hidden; font-family: Roboto, sans-serif; font-size: 12px; font-weight: 200;" fill="rgb(33, 33, 33)" stroke="none" stroke-width="1px">4</text><text x="0" y="300.12384277159447" dx="0em" dy="0.3em" style="text-anchor: end; visibility: inherit; font-family: Roboto, sans-serif; font-size: 12px; font-weight: 200;" fill="rgb(33, 33, 33)" stroke="none" stroke-width="1px">5</text><text x="0" y="241.12166609760575" dx="0em" dy="0.3em" style="text-anchor: end; visibility: inherit; font-family: Roboto, sans-serif; font-size: 12px; font-weight: 200;" fill="rgb(33, 33, 33)" stroke="none" stroke-width="1px">6</text><text x="0" y="191.23603652357764" dx="0em" dy="0.3em" style="text-anchor: end; visibility: inherit; font-family: Roboto, sans-serif; font-size: 12px; font-weight: 200;" fill="rgb(33, 33, 33)" stroke="none" stroke-width="1px">7</text><text x="0" y="148.02313862111154" dx="0em" dy="0.3em" style="text-anchor: end; visibility: inherit; font-family: Roboto, sans-serif; font-size: 12px; font-weight: 200;" fill="rgb(33, 33, 33)" stroke="none" stroke-width="1px">8</text><text x="0" y="109.90666133120783" dx="0em" dy="0.3em" style="text-anchor: end; visibility: inherit; font-family: Roboto, sans-serif; font-size: 12px; font-weight: 200;" fill="rgb(33, 33, 33)" stroke="none" stroke-width="1px">9</text><text x="0" y="75.81031052870227" dx="0em" dy="0.3em" style="text-anchor: end; visibility: inherit; font-family: Roboto, sans-serif; font-size: 12px; font-weight: 200;" fill="rgb(33, 33, 33)" stroke="none" stroke-width="1px">10</text></g><line x1="30.78125" y1="0" x2="30.78125" y2="376.921875" fill="rgb(0, 0, 0)" stroke="rgb(204, 204, 204)" stroke-width="1px"></line></g></g><g transform="translate(30, 0)" clip-path="url(#clip_0)"><clipPath id="clip_0"><rect width="987" height="376"></rect></clipPath><g><g><g><line x1="0" y1="0" x2="0" y2="376.921875" fill="rgb(0, 0, 0)" stroke="rgb(66, 66, 66)" stroke-width="1px" opacity="0.25"></line><line x1="123.40234375" y1="0" x2="123.40234375" y2="376.921875" fill="rgb(0, 0, 0)" stroke="rgb(66, 66, 66)" stroke-width="1px" opacity="0.25"></line><line x1="246.8046875" y1="0" x2="246.8046875" y2="376.921875" fill="rgb(0, 0, 0)" stroke="rgb(66, 66, 66)" stroke-width="1px" opacity="0.25"></line><line x1="370.20703125" y1="0" x2="370.20703125" y2="376.921875" fill="rgb(0, 0, 0)" stroke="rgb(66, 66, 66)" stroke-width="1px" opacity="0.25"></line><line x1="493.609375" y1="0" x2="493.609375" y2="376.921875" fill="rgb(0, 0, 0)" stroke="rgb(66, 66, 66)" stroke-width="1px" opacity="0.25"></line><line x1="617.01171875" y1="0" x2="617.01171875" y2="376.921875" fill="rgb(0, 0, 0)" stroke="rgb(66, 66, 66)" stroke-width="1px" opacity="0.25"></line><line x1="740.4140625" y1="0" x2="740.4140625" y2="376.921875" fill="rgb(0, 0, 0)" stroke="rgb(66, 66, 66)" stroke-width="1px" opacity="0.25"></line><line x1="863.81640625" y1="0" x2="863.81640625" y2="376.921875" fill="rgb(0, 0, 0)" stroke="rgb(66, 66, 66)" stroke-width="1px" opacity="0.25"></line><line x1="987.21875" y1="0" x2="987.21875" y2="376.921875" fill="rgb(0, 0, 0)" stroke="rgb(66, 66, 66)" stroke-width="1px" opacity="0.25"></line></g><g><line x1="0" y1="372.3366708640036" x2="987.21875" y2="372.3366708640036" fill="rgb(0, 0, 0)" stroke="rgb(66, 66, 66)" stroke-width="1px" opacity="0.25"></line><line x1="0" y1="300.12384277159447" x2="987.21875" y2="300.12384277159447" fill="rgb(0, 0, 0)" stroke="rgb(66, 66, 66)" stroke-width="1px" opacity="0.25"></line><line x1="0" y1="241.12166609760575" x2="987.21875" y2="241.12166609760575" fill="rgb(0, 0, 0)" stroke="rgb(66, 66, 66)" stroke-width="1px" opacity="0.25"></line><line x1="0" y1="191.23603652357764" x2="987.21875" y2="191.23603652357764" fill="rgb(0, 0, 0)" stroke="rgb(66, 66, 66)" stroke-width="1px" opacity="0.25"></line><line x1="0" y1="148.02313862111154" x2="987.21875" y2="148.02313862111154" fill="rgb(0, 0, 0)" stroke="rgb(66, 66, 66)" stroke-width="1px" opacity="0.25"></line><line x1="0" y1="109.90666133120783" x2="987.21875" y2="109.90666133120783" fill="rgb(0, 0, 0)" stroke="rgb(66, 66, 66)" stroke-width="1px" opacity="0.25"></line><line x1="0" y1="75.81031052870227" x2="987.21875" y2="75.81031052870227" fill="rgb(0, 0, 0)" stroke="rgb(66, 66, 66)" stroke-width="1px" opacity="0.25"></line></g></g></g><g><g><line x1="123.40234375" y1="0" x2="123.40234375" y2="376.921875" fill="rgb(0, 0, 0)" stroke="rgb(153, 153, 153)" stroke-width="1.5px"></line></g></g><g><g><g><g><g><path stroke="rgb(238, 51, 119)" stroke-width="2px" d="M163.940013671875,52.67722835682897L204.6010859375,79.44375985311444L245.323859375,105.67533601799883L286.0466328125,127.89210619729633L326.76940625000003,146.98014798435517L367.4921796875,165.00078630075163L408.21495312499997,181.8807014611651L448.93772656249996,192.89085818118846L489.6605,205.357296101565L530.3832734375,216.96540409851306L571.1060468750001,224.22220226838863L611.8288203125,233.75314246750287L652.55159375,239.53262473653822L693.2743671875,242.5019631142803L733.997140625,245.2360513116728L740.4140625,245.4611017579993L774.7199140624999,248.9906210324309L815.4426874999999,251.66563597317509L856.1654609374999,252.8000480602955L896.888234375,254.36883588525666L937.6110078125,254.7406484616383L978.33378125,255.26397562686074L1019.0565546874999,255.5962187890546" style="fill: none;" fill="none"></path></g><g><path stroke="rgb(51, 187, 238)" stroke-width="2px" d="M141.91269531249998,-18.858921659675183L148.0828125,6.5532862546336865L154.2529296875,28.46229986619647L160.423046875,40.91184567937652L166.59316406250002,48.117517647640184L172.76328124999998,53.08251585455392L178.9333984375,56.69978793505902L185.103515625,61.47800952121772L191.2736328125,67.66265480217167L197.44375000000002,71.63498477137547L203.61386718749998,77.45214102236635L209.783984375,82.31593178820127L215.9541015625,85.3895590540092L222.12421875,89.00894158318265L228.29433593750002,94.59271444244216L234.46445312499998,98.86154914600534L240.6345703125,100.94549771689796L246.8046875,103.97060566564555L252.97480468749998,107.78471183580461L259.144921875,115.05786877439334L265.3150390625,116.18468274715086L271.48515625000005,119.30907275001668L277.6552734375,122.05527618216523L283.82539062499995,125.0077508232357L289.9955078125,128.59854409184476L296.165625,130.62310645180213L302.33574218750005,133.24210275224408L308.505859375,139.10637977115437L314.67597656249995,139.7769624714078L320.84609375,142.4259523973161L327.0162109375,144.37052357368864L333.18632812500005,151.96048948297454L339.3564453125,155.7856406027673L345.52656249999995,155.732786495732L351.6966796875,158.3572368050943L357.866796875,160.60004017361112L364.03691406250005,161.2019596531475L370.20703125,164.682888314387L376.37714843749995,171.1759938121311L382.547265625,173.3389281785298L388.7173828125,176.6130796953802L394.88750000000005,177.61407496380406L401.0576171875,179.44261831887573L407.22773437499995,183.2354120363271L413.3978515625,188.46461342029883L419.56796875,189.81808339402767L425.73808593750005,192.1867519883336L431.908203125,193.30747179004732L438.07832031249995,195.6498787487577L444.2484375,194.58169701587622L450.4185546875,202.4456573434462L456.58867187500005,206.01627982606828L462.7587890625,209.8130125266579L468.92890624999995,209.52173016423913L475.0990234375,208.06968296609853L481.269140625,209.11997526052562L487.43925781250005,211.00819259051258L493.609375,217.77770153993097L499.77949218749995,224.59771632918677L505.94960937499997,222.02310290943709L512.1197265625001,223.38522261901434L518.28984375,223.70973944368632L524.4599609375,224.10134288977625L530.630078125,225.84922933475593L536.8001953124999,236.28195543106142L542.9703125000001,238.79160710728888L549.1404296875,237.66358756420618L555.310546875,239.5905256526648L561.4806640625,239.1000708383183L567.6507812499999,239.1254791564009L573.8208984375001,245.12978537935987L579.991015625,249.35882271238904L586.1611328125,253.86862677587143L592.33125,253.03696420637917L598.5013671874999,252.46583749446572L604.6714843750001,253.94319180669052L610.8416015625,251.90211763850547L617.01171875,265.58768733634673L623.1818359375,264.3512082268741L629.3519531249999,266.95050834631695L635.5220703125001,264.8169291440945L641.6921875,266.1699658739267L647.8623046875,263.09730602882405L654.032421875,265.3032788763392L660.2025390624999,277.92900076201965L666.3726562500001,279.1735437397305L672.5427734375,276.75132983076696L678.712890625,272.7924024882946L684.8830078125,273.8600897604813L691.0531249999999,274.0353213840602L697.2232421875001,282.0197181807757L703.393359375,284.82812091156813L709.5634765625,287.9725436965174L715.73359375,285.77369564293883L721.9037109374999,283.99875526582144L728.0738281250001,283.48468991443787L734.2439453125,285.08600821181733L740.4140625,293.5045955227461L746.5841796875,295.43504094673875L752.7542968749999,296.2429634718102L758.9244140625001,295.60147247311136L765.09453125,296.3283161410525L771.2646484375,294.30749279826455L777.434765625,296.8690977177322L783.6048828124999,307.89143154686207L789.7750000000001,306.8124722041549L795.9451171875,308.00355359051235L802.115234375,302.3143030306783L808.2853515625,303.05163429175053L814.4554687499999,303.30874660679865L820.6255859375001,319.7701470922847L826.795703125,316.43678853540996L832.9658203125,317.36568120440575L839.1359375,313.153307249098L845.3060546874999,311.0091192041856L851.4761718750001,315.0428472459063L857.6462890625,313.8494985391742L863.81640625,324.47046327871516L869.9865234375,326.66846122349835L876.1566406249999,325.40474012521975L882.3267578125001,322.8248345461216L888.496875,323.0602300599599L894.6669921875,320.6421042294814L900.837109375,329.9965831074629L907.0072265624999,337.3953619727466L913.1773437500001,332.7732411290098L919.3474609375,331.8766415845974L925.517578125,328.6530405326928L931.6876953125,329.55471427800546L937.8578124999999,327.61497784602113L944.0279296875001,342.0972563837674L950.198046875,339.469453005919L956.3681640625,342.4701012374598L962.53828125,337.7563451045284L968.7083984374999,339.7836032397663L974.8785156250001,336.2853591395257L981.0486328125,342.7332689293464L987.21875,348.8823988722895L993.3888671875001,346.4875417990364" style="fill: none;" fill="none"></path></g><g><path stroke="rgb(0, 153, 136)" stroke-width="2px" d="M163.940013671875,-1.87048629133446L204.6010859375,52.62295990631748L245.323859375,85.53362206175545L286.0466328125,111.15797428936392L326.76940625000003,132.5338758053028L367.4921796875,152.89890288603598L408.21495312499997,171.9341387661595L448.93772656249996,189.59313990162087L489.6605,205.0998703650967L530.3832734375,220.2166659215226L571.1060468750001,235.14757803580278L611.8288203125,249.06293984889322L652.55159375,261.9487008739653L693.2743671875,273.2137398658197L733.997140625,282.9605447512708L774.7199140624999,292.49845962937604L815.4426874999999,302.93956822739574L856.1654609374999,312.68640639441446L896.888234375,321.74455478256147L937.6110078125,329.8387313768223L978.33378125,337.5918762903738L1019.0565546874999,344.2414045432137" style="fill: none;" fill="none"></path></g></g></g></g><g opacity="0.2"><g><g><g><path stroke="rgb(238, 51, 119)" stroke-width="2px" d="M163.940013671875,52.67722835682897L204.6010859375,85.30060398686123L245.323859375,112.61475407277563L286.0466328125,133.93344864909076L326.76940625000003,152.1757822323091L367.4921796875,169.90277506439L408.21495312499997,186.463389676951L448.93772656249996,195.84556393128733L489.6605,208.71251060687638L530.3832734375,220.08431341588314L571.1060468750001,226.15531883860035L611.8288203125,236.30346446219738L652.55159375,241.06773849693437L693.2743671875,243.28632775330988L733.997140625,245.95794101223845L740.4140625,245.52023187332225L774.7199140624999,249.92398347018334L815.4426874999999,252.37184672845856L856.1654609374999,253.0986349616612L896.888234375,254.782104785803L937.6110078125,254.8383670777368L978.33378125,255.40155551336784L1019.0565546874999,255.68353115278572" style="fill: none;" fill="none"></path></g><g><path stroke="rgb(51, 187, 238)" stroke-width="2px" d="M141.91269531249998,-12.758392757614084L148.0828125,13.507950447777766L154.2529296875,34.45950893920666L160.423046875,44.26110231673384L166.59316406250002,50.03666616417366L172.76328124999998,54.399161460963946L178.9333984375,57.6565172435773L185.103515625,62.74468082077313L191.2736328125,69.30669372034393L197.44375000000002,72.6863579912659L203.61386718749998,78.99737588880103L209.783984375,83.605504280049L215.9541015625,86.20163788813274L222.12421875,89.96623639967117L228.29433593750002,96.0752749712487L234.46445312499998,99.99205650353234L240.6345703125,101.49502963354779L246.8046875,104.76978935402605L252.97480468749998,108.79389433128209L259.144921875,116.99540577442545L265.3150390625,116.48126535819803L271.48515625000005,120.13464559164245L277.6552734375,122.78038189904854L283.82539062499995,125.78763508040966L289.9955078125,129.54822410473736L296.165625,131.1569163783702L302.33574218750005,133.93344864909076L308.505859375,140.66427573484575L314.67597656249995,139.95330572955345L320.84609375,143.12525686490685L327.0162109375,144.88316228700475L333.18632812500005,153.9836842006062L339.3564453125,156.79776741248872L345.52656249999995,155.71890705025137L351.6966796875,159.05002981054415L357.866796875,161.19164547596824L364.03691406250005,161.36022531428662L370.20703125,165.60331360672674L376.37714843749995,172.90307657975254L382.547265625,173.90937656223667L388.7173828125,177.4784785163745L394.88750000000005,177.87747677266398L401.0576171875,179.92455978515437L407.22773437499995,184.2389135113451L413.3978515625,189.85206458258247L419.56796875,190.17448068901666L425.73808593750005,192.81171179908665L431.908203125,193.60244687574226L438.07832031249995,196.26787782454903L444.2484375,194.3017480391882L450.4185546875,204.54301969307667L456.58867187500005,206.9605878244661L462.7587890625,210.81756393634677L468.92890624999995,209.4452752153138L475.0990234375,207.68941500395493L481.269140625,209.39637569699468L487.43925781250005,211.5059201418522L493.609375,219.57928299512875L499.77949218749995,226.41291929368055L505.94960937499997,221.35032419905258L512.1197265625001,223.74390363469013L518.28984375,223.79502006649656L524.4599609375,224.20426685567023L530.630078125,226.3098397632958L536.8001953124999,239.0785552676968L542.9703125000001,239.4539471769202L549.1404296875,237.3679907619608L555.310546875,240.09849831851236L561.4806640625,238.971387668345L567.6507812499999,239.13215237878546L573.8208984375001,246.72532021417956L579.991015625,250.47870321762522L586.1611328125,255.0635141113761L592.33125,252.81890167367163L598.5013671874999,252.3160115867639L604.6714843750001,254.3323046566812L610.8416015625,251.36820550896965L617.01171875,269.2799416634021L623.1818359375,264.02725811788935L629.3519531249999,267.6366285253442L635.5220703125001,264.25891964513136L641.6921875,266.5262487850182L647.8623046875,262.29515868060236L654.032421875,265.88512712831204L660.2025390624999,281.3281690352848L666.3726562500001,279.50118851234447L672.5427734375,276.11818737124094L678.712890625,271.7606644116712L684.8830078125,274.1410774976616L691.0531249999999,274.0813575465691L697.2232421875001,284.14970677035274L703.393359375,285.5697399703968L709.5634765625,288.80344249087716L715.73359375,285.19868896700405L721.9037109374999,283.5342188824758L728.0738281250001,283.34981813414646L734.2439453125,285.50787350119253L740.4140625,295.7523345227291L746.5841796875,295.94394169407076L752.7542968749999,296.4554799901748L758.9244140625001,295.43321070816165L765.09453125,296.5194753532931L771.2646484375,293.7788571252726L777.434765625,297.54521786789144L783.6048828124999,310.8495264278102L789.7750000000001,306.52970457008826L795.9451171875,308.3170910410537L802.115234375,300.83659246333656L808.2853515625,303.24555570220065L814.4554687499999,303.3763049355761L820.6255859375001,324.2358564808896L826.795703125,315.56702405675543L832.9658203125,317.6100755233377L839.1359375,312.05605833770716L845.3060546874999,310.4483466786372L851.4761718750001,316.11059948144367L857.6462890625,313.5368220677337L863.81640625,327.318581430185L869.9865234375,327.2481969689866L876.1566406249999,325.0736703472528L882.3267578125001,322.1506798669785L888.496875,323.12207950345055L894.6669921875,320.01002532636693L900.837109375,332.49881569734055L907.0072265624999,339.36685145127L913.1773437500001,331.57021737566515L919.3474609375,331.64158227817023L925.517578125,327.81173537351265L931.6876953125,329.79193461000483L937.8578124999999,327.1074739544901L944.0279296875001,346.01063782429026L950.198046875,338.7828461222058L956.3681640625,343.26278511030466L962.53828125,336.5296890404442L968.7083984374999,340.3181267706655L974.8785156250001,335.3728638816861L981.0486328125,344.4481778345346L987.21875,350.51688305547805L993.3888671875001,345.86151682914095" style="fill: none;" fill="none"></path></g><g><path stroke="rgb(0, 153, 136)" stroke-width="2px" d="M163.940013671875,-1.87048629133446L204.6010859375,65.2094322117193L245.323859375,94.35719244861271L286.0466328125,118.17368536901606L326.76940625000003,138.37891329854074L367.4921796875,158.46460457948763L408.21495312499997,177.12422357041783L448.93772656249996,194.3950965357334L489.6605,209.29859882144297L530.3832734375,224.3066533650033L571.1060468750001,239.185783933368L611.8288203125,252.81890167367163L652.55159375,265.4196659160518L693.2743671875,276.2384212943971L733.997140625,285.5697399703968L774.7199140624999,295.05068313951233L815.4426874999999,305.73846142696783L856.1654609374999,315.2956106950699L896.888234375,324.1661059953164L937.6110078125,331.9984727612991L978.33378125,339.659232371795L1019.0565546874999,346.01063782429026" style="fill: none;" fill="none"></path></g></g></g></g></g></g><g transform="translate(30, 376)" clip-path="url(#clip_1)"><clipPath id="clip_1"><rect width="987" height="23"></rect></clipPath><g><g><line x1="0" y1="0" x2="0" y2="5" style="visibility: inherit;" fill="rgb(0, 0, 0)" stroke="rgb(204, 204, 204)" stroke-width="1px"></line><line x1="123.40234375" y1="0" x2="123.40234375" y2="5" style="visibility: inherit;" fill="rgb(0, 0, 0)" stroke="rgb(204, 204, 204)" stroke-width="1px"></line><line x1="246.8046875" y1="0" x2="246.8046875" y2="5" style="visibility: inherit;" fill="rgb(0, 0, 0)" stroke="rgb(204, 204, 204)" stroke-width="1px"></line><line x1="370.20703125" y1="0" x2="370.20703125" y2="5" style="visibility: inherit;" fill="rgb(0, 0, 0)" stroke="rgb(204, 204, 204)" stroke-width="1px"></line><line x1="493.609375" y1="0" x2="493.609375" y2="5" style="visibility: inherit;" fill="rgb(0, 0, 0)" stroke="rgb(204, 204, 204)" stroke-width="1px"></line><line x1="617.01171875" y1="0" x2="617.01171875" y2="5" style="visibility: inherit;" fill="rgb(0, 0, 0)" stroke="rgb(204, 204, 204)" stroke-width="1px"></line><line x1="740.4140625" y1="0" x2="740.4140625" y2="5" style="visibility: inherit;" fill="rgb(0, 0, 0)" stroke="rgb(204, 204, 204)" stroke-width="1px"></line><line x1="863.81640625" y1="0" x2="863.81640625" y2="5" style="visibility: inherit;" fill="rgb(0, 0, 0)" stroke="rgb(204, 204, 204)" stroke-width="1px"></line><line x1="987.21875" y1="0" x2="987.21875" y2="5" style="visibility: inherit;" fill="rgb(0, 0, 0)" stroke="rgb(204, 204, 204)" stroke-width="1px"></line></g><g transform="translate(0, 8)"><text x="0" y="0" dx="0em" dy="0.95em" style="text-anchor: middle; visibility: hidden; font-family: Roboto, sans-serif; font-size: 12px; font-weight: 200;" fill="rgb(33, 33, 33)" stroke="none" stroke-width="1px">-2k</text><text x="123.40234375" y="0" dx="0em" dy="0.95em" style="text-anchor: middle; visibility: inherit; font-family: Roboto, sans-serif; font-size: 12px; font-weight: 200;" fill="rgb(33, 33, 33)" stroke="none" stroke-width="1px">0</text><text x="246.8046875" y="0" dx="0em" dy="0.95em" style="text-anchor: middle; visibility: inherit; font-family: Roboto, sans-serif; font-size: 12px; font-weight: 200;" fill="rgb(33, 33, 33)" stroke="none" stroke-width="1px">2k</text><text x="370.20703125" y="0" dx="0em" dy="0.95em" style="text-anchor: middle; visibility: inherit; font-family: Roboto, sans-serif; font-size: 12px; font-weight: 200;" fill="rgb(33, 33, 33)" stroke="none" stroke-width="1px">4k</text><text x="493.609375" y="0" dx="0em" dy="0.95em" style="text-anchor: middle; visibility: inherit; font-family: Roboto, sans-serif; font-size: 12px; font-weight: 200;" fill="rgb(33, 33, 33)" stroke="none" stroke-width="1px">6k</text><text x="617.01171875" y="0" dx="0em" dy="0.95em" style="text-anchor: middle; visibility: inherit; font-family: Roboto, sans-serif; font-size: 12px; font-weight: 200;" fill="rgb(33, 33, 33)" stroke="none" stroke-width="1px">8k</text><text x="740.4140625" y="0" dx="0em" dy="0.95em" style="text-anchor: middle; visibility: inherit; font-family: Roboto, sans-serif; font-size: 12px; font-weight: 200;" fill="rgb(33, 33, 33)" stroke="none" stroke-width="1px">10k</text><text x="863.81640625" y="0" dx="0em" dy="0.95em" style="text-anchor: middle; visibility: inherit; font-family: Roboto, sans-serif; font-size: 12px; font-weight: 200;" fill="rgb(33, 33, 33)" stroke="none" stroke-width="1px">12k</text><text x="987.21875" y="0" dx="0em" dy="0.95em" style="text-anchor: middle; visibility: hidden; font-family: Roboto, sans-serif; font-size: 12px; font-weight: 200;" fill="rgb(33, 33, 33)" stroke="none" stroke-width="1px">14k</text></g><line x1="0" y1="0" x2="987.21875" y2="0" fill="rgb(0, 0, 0)" stroke="rgb(204, 204, 204)" stroke-width="1px"></line></g></g></g></g></svg>